<svg xmlns="http://www.w3.org/2000/svg" width="30" height="30" fill="none" viewBox="0 0 18 18"><path fill="#FFF" d="M15.405 2.599c-1.361-1.358-2.812-.477-3.72.427l-8.58 8.58c-.908.908-1.86 2.292-.427 3.72 1.432 1.429 2.808.476 3.716-.431l8.58-8.58c.911-.908 1.788-2.359.431-3.716m-8.197-.353 1.818 1.819 1.845-1.853c.128-.127.252-.243.383-.352C11.063.885 10.504 0 9.019 0S6.979.889 6.79 1.864c.139.123.278.243.416.382m3.663 13.497-1.848-1.85-1.82 1.816q-.206.21-.408.386c.21.998.795 1.905 2.224 1.905 1.428 0 2.025-.919 2.227-1.916a10 10 0 0 1-.375-.341M6.435 6.649H2.933C1.646 6.649 0 7.054 0 8.974c0 1.436.919 2.025 1.92 2.227.116-.131 4.515-4.552 4.515-4.552m9.701.097c-.108.128-4.522 4.56-4.522 4.56h3.454C16.354 11.306 18 11 18 8.978c0-1.482-.885-2.04-1.864-2.232M7.583 5.501l.622-.622L6.39 3.06c-.907-.908-2.287-1.86-3.72-.428-1.046 1.047-.814 2.07-.259 2.895.173-.014 5.172-.026 5.172-.026m2.88 6.953-.63.63 1.852 1.848c.907.908 2.359 1.79 3.716.432 1.013-1.013.784-2.081.222-2.933-.18.008-5.16.023-5.16.023"/></svg>