<svg width="40" height="40" viewBox="0 0 24 24" fill="none" xmlns="http://www.w3.org/2000/svg">
<path d="M12 0C5.374 0 0 5.373 0 12C0 17.302 3.438 21.8 8.207 23.387C8.806 23.498 9.025 23.126 9.025 22.81C9.025 22.52 9.015 21.77 9.01 20.776C5.672 21.489 4.968 19.235 4.968 19.235C4.421 17.852 3.634 17.481 3.634 17.481C2.545 16.742 3.717 16.756 3.717 16.756C4.922 16.842 5.555 17.996 5.555 17.996C6.625 19.815 8.364 19.285 9.05 18.977C9.158 18.204 9.467 17.674 9.81 17.374C7.145 17.071 4.344 16.04 4.344 11.42C4.344 10.103 4.809 9.031 5.579 8.19C5.444 7.887 5.039 6.669 5.684 5.002C5.684 5.002 6.689 4.681 8.984 6.24C9.944 5.974 10.964 5.84 11.984 5.836C13.004 5.84 14.024 5.974 14.984 6.24C17.264 4.681 18.269 5.002 18.269 5.002C18.914 6.669 18.509 7.887 18.389 8.19C19.154 9.031 19.619 10.103 19.619 11.42C19.619 16.051 16.814 17.067 14.144 17.364C14.564 17.73 14.954 18.452 14.954 19.558C14.954 21.142 14.939 22.413 14.939 22.81C14.939 23.129 15.154 23.504 15.764 23.386C20.565 21.795 24 17.3 24 12C24 5.373 18.627 0 12 0Z" fill="white"/>
</svg>
